PathFileType	4	(X/Y/Z)	/Users/itak/Documents/Research/Walk-IL/dataset/trc/00219_00009.trc
DataRate	CameraRate	NumFrames	NumMarkers	Units	OrigDataRate	OrigDataStartFrame	OrigNumFrames
100.000000	100.000000	4	53	mm	100.000000	0	479
Frame#	Time	RPSI			LPSI			L3			STRN			T10			C7			CLAV			RBAK			LBAK			LSHO			LUPA			LAEL			LAOL			LWTS			LWPS			LFRA			LIFD			LHPS			LHTS			RSHO			RUPA			RAEL			RAOL			RWTS			RWPS			RFRA			RIFD			RHTS			RHPS			RBHD			LFHD			RFHD			LBHD			LHIP			RHIP			RASI			LASI			LKNE			LTHI			LANK			LTIP			LTOE			LMT1			LMT5			LHEE			RKNE			RANK			RTIP			RTOE			RMT1			RMT5			RHEE			RTHI			
		X1	Y1	Z1	X2	Y2	Z2	X3	Y3	Z3	X4	Y4	Z4	X5	Y5	Z5	X6	Y6	Z6	X7	Y7	Z7	X8	Y8	Z8	X9	Y9	Z9	X10	Y10	Z10	X11	Y11	Z11	X12	Y12	Z12	X13	Y13	Z13	X14	Y14	Z14	X15	Y15	Z15	X16	Y16	Z16	X17	Y17	Z17	X18	Y18	Z18	X19	Y19	Z19	X20	Y20	Z20	X21	Y21	Z21	X22	Y22	Z22	X23	Y23	Z23	X24	Y24	Z24	X25	Y25	Z25	X26	Y26	Z26	X27	Y27	Z27	X28	Y28	Z28	X29	Y29	Z29	X30	Y30	Z30	X31	Y31	Z31	X32	Y32	Z32	X33	Y33	Z33	X34	Y34	Z34	X35	Y35	Z35	X36	Y36	Z36	X37	Y37	Z37	X38	Y38	Z38	X39	Y39	Z39	X40	Y40	Z40	X41	Y41	Z41	X42	Y42	Z42	X43	Y43	Z43	X44	Y44	Z44	X45	Y45	Z45	X46	Y46	Z46	X47	Y47	Z47	X48	Y48	Z48	X49	Y49	Z49	X50	Y50	Z50	X51	Y51	Z51	X52	Y52	Z52	X53	Y53	Z53	

1	0	-1170.636962890625	1039.465087890625	-219.1034088134766	-1175.794067382812	1045.584594726562	-98.84930419921875	-1163.663208007812	1124.468627929688	-143.6403045654297	-1398.361450195312	1321.755859375	-143.623291015625	-1146.759887695312	1251.017822265625	-150.96142578125	-1198.393920898438	1515.3330078125	-150.0374908447266	-1366.8359375	1437.902709960938	-145.9157104492188	-1126.607055664062	1373.875854492188	-222.3506927490234	-1179.892578125	1476.158203125	-37.46273422241211	-1269.582153320312	1481.885864257812	20.20745849609375	-1247.466064453125	1361.262573242188	100.11181640625	-1277.361938476562	1150.20361328125	123.4158172607422	-1203.062744140625	1131.264404296875	79.81173706054688	-1371.819580078125	918.58642578125	60.36549758911133	-1350.965454101562	900.8705444335938	140.4045257568359	-1304.764038085938	1043.610961914062	135.2873687744141	-1383.239013671875	722.5647583007812	68.95542907714844	-1369.215087890625	812.6989135742188	135.1450653076172	-1409.453735351562	817.7136840820312	80.28054809570312	-1261.07861328125	1472.629272460938	-317.2729797363281	-1244.563110351562	1405.509521484375	-382.8709106445312	-1239.926635742188	1123.353637695312	-416.0614318847656	-1205.339477539062	1114.515869140625	-327.3428039550781	-1386.752197265625	916.5603637695312	-377.4901123046875	-1333.255615234375	899.8173828125	-439.9875793457031	-1269.17431640625	1056.544799804688	-428.553466796875	-1408.407348632812	723.48583984375	-371.4234313964844	-1429.25244140625	796.4911499023438	-392.9495544433594	-1375.128784179688	794.1779174804688	-441.3441162109375	-1224.950317382812	1633.682739257812	-225.6171264648438	-1380.17333984375	1764.527099609375	-120.6556549072266	-1396.8623046875	1748.083984375	-217.9010620117188	-1241.840209960938	1677.87548828125	-92.32865905761719	-1283.047607421875	991.8855590820312	37.66882705688477	-1269.317260742188	1004.066345214844	-327.5080871582031	-1362.296142578125	1054.607788085938	-293.8021850585938	-1380.69287109375	1039.271118164062	-13.42731189727783	-1325.658081054688	509.2461242675781	-16.10041046142578	-1324.744262695312	652.954345703125	17.69483184814453	-1219.413940429688	41.64057922363281	-35.86768341064453	-1266.855346679688	286.1462707519531	-15.26959228515625	-1435.067260742188	45.71852111816406	-88.91239929199219	-1367.769653320312	40.98402404785156	-132.5623626708984	-1347.4130859375	39.45574569702148	-16.47900199890137	-1158.1455078125	50.00522994995117	-88.81373596191406	-1324.47900390625	515.4017944335938	-282.5760192871094	-1202.63037109375	40.74784851074219	-259.6099853515625	-1323.610961914062	394.6214599609375	-263.061279296875	-1414.396484375	47.03824615478516	-211.8514251708984	-1356.05810546875	44.90855026245117	-170.5201721191406	-1313.11767578125	40.38504409790039	-283.5295104980469	-1138.956787109375	43.04312133789062	-201.4612426757812	nan	nan	nan	
2	0.01	-1170.623657226562	1039.486206054688	-219.1329040527344	-1175.788818359375	1045.575439453125	-98.87792205810547	-1163.634643554688	1124.463256835938	-143.6613006591797	-1398.314331054688	1321.795654296875	-143.5847320556641	-1146.702270507812	1251.0048828125	-150.9575958251953	-1198.270629882812	1515.322265625	-149.9862670898438	-1366.728637695312	1437.95068359375	-145.852294921875	-1126.560546875	1373.879028320312	-222.3409576416016	-1179.802612304688	1476.159912109375	-37.42459106445312	-1269.414916992188	1481.888061523438	20.2825813293457	-1247.398803710938	1361.2373046875	100.1194381713867	-1277.436279296875	1150.164794921875	123.3232040405273	-1203.169799804688	1131.16455078125	79.71159362792969	-1372.422241210938	918.8765869140625	59.78352355957031	-1351.58935546875	900.9322509765625	139.8360443115234	-1305.07275390625	1043.633422851562	134.9937286376953	-1384.365478515625	722.929931640625	68.03922271728516	-1370.078002929688	812.842041015625	134.4640808105469	-1410.32177734375	818.1188354492188	79.52491760253906	-1261.029174804688	1472.67041015625	-317.2445983886719	-1244.521484375	1405.560791015625	-382.8309020996094	-1239.98095703125	1123.379516601562	-416.0133972167969	-1205.348876953125	1114.56787109375	-327.2934265136719	-1386.935913085938	916.667236328125	-377.3093872070312	-1333.39892578125	899.8698120117188	-439.7926940917969	-1269.179809570312	1056.582275390625	-428.5238647460938	-1408.653930664062	723.581298828125	-371.1479797363281	-1429.455688476562	796.6328125	-392.6863098144531	-1375.365844726562	794.2489013671875	-441.1021728515625	-1224.859619140625	1633.70263671875	-225.6083526611328	-1379.99169921875	1764.590209960938	-120.4727783203125	-1396.699340820312	1748.1884765625	-217.7502899169922	-1241.631958007812	1677.867919921875	-92.27020263671875	-1283.029663085938	991.876220703125	37.65268707275391	-1269.235961914062	1004.118103027344	-327.4354858398438	-1362.322509765625	1054.65283203125	-293.8079833984375	-1380.597534179688	1039.258178710938	-13.41103267669678	-1325.618774414062	509.2552185058594	-16.1181526184082	-1324.673583984375	652.9658203125	17.6853084564209	-1219.396362304688	41.65150833129883	-35.88034057617188	-1266.8095703125	286.1419677734375	-15.26505565643311	-1435.063232421875	45.72077941894531	-88.91332244873047	-1367.770263671875	40.98987197875977	-132.5653533935547	-1347.414306640625	39.45608901977539	-16.47998809814453	-1158.150024414062	49.99597549438477	-88.81880187988281	-1324.400268554688	515.4280395507812	-282.6131591796875	-1202.644653320312	40.75950622558594	-259.6199035644531	-1323.490234375	394.64794921875	-263.0629577636719	-1414.389282226562	47.04529571533203	-211.8503570556641	-1356.058471679688	44.90934753417969	-170.5201721191406	-1313.122192382812	40.38259124755859	-283.5304260253906	-1139.067993164062	42.86960601806641	-201.5007476806641	nan	nan	nan	
3	0.02	-1170.610595703125	1039.508422851562	-219.1678161621094	-1175.776000976562	1045.570556640625	-98.91532135009766	-1163.595336914062	1124.457641601562	-143.6874542236328	-1398.254150390625	1321.845947265625	-143.5355529785156	-1146.61962890625	1250.990478515625	-150.9515991210938	-1198.117797851562	1515.309814453125	-149.9214019775391	-1366.592529296875	1438.01123046875	-145.7698211669922	-1126.503784179688	1373.883178710938	-222.3296813964844	-1179.6875	1476.162353515625	-37.37509918212891	-1269.207397460938	1481.889404296875	20.37758827209473	-1247.318115234375	1361.207153320312	100.1274871826172	-1277.529296875	1150.112426757812	123.2045516967773	-1203.297485351562	1131.040893554688	79.588134765625	-1373.162963867188	919.2322387695312	59.05839538574219	-1352.369995117188	901.0018920898438	139.1187438964844	-1305.450073242188	1043.65625	134.6307220458984	-1385.735229492188	723.358154296875	66.87222290039062	-1371.162353515625	813.0145874023438	133.5900573730469	-1411.38330078125	818.6033325195312	78.58164978027344	-1260.964477539062	1472.723510742188	-317.2037048339844	-1244.477416992188	1405.624877929688	-382.7825622558594	-1240.055786132812	1123.413818359375	-415.9520874023438	-1205.364624023438	1114.631591796875	-327.2361450195312	-1387.168579101562	916.8017578125	-377.0765686035156	-1333.58056640625	899.93505859375	-439.5459594726562	-1269.199462890625	1056.622924804688	-428.4736938476562	-1408.950927734375	723.7031860351562	-370.7966918945312	-1429.6904296875	796.8017578125	-392.3436889648438	-1375.67822265625	794.338134765625	-440.8028869628906	-1224.735961914062	1633.724609375	-225.5904846191406	-1379.752563476562	1764.663452148438	-120.251708984375	-1396.49462890625	1748.313842773438	-217.5611267089844	-1241.364501953125	1677.860961914062	-92.19509124755859	-1282.992919921875	991.8678588867188	37.63024520874023	-1269.145263671875	1004.181091308594	-327.3456420898438	-1362.344604492188	1054.706176757812	-293.8175659179688	-1380.48779296875	1039.244018554688	-13.3935079574585	-1325.562866210938	509.2671813964844	-16.13784599304199	-1324.587036132812	652.9791870117188	17.6707763671875	-1219.385009765625	41.65899276733398	-35.88735198974609	-1266.747802734375	286.1355590820312	-15.25736713409424	-1435.059204101562	45.72332000732422	-88.91305541992188	-1367.7705078125	40.99574279785156	-132.5690460205078	-1347.415161132812	39.45646667480469	-16.48064422607422	-1158.15380859375	49.9860725402832	-88.82534790039062	-1324.302124023438	515.4594116210938	-282.6580200195312	-1202.656127929688	40.76986694335938	-259.6300659179688	-1323.346557617188	394.6784057617188	-263.0679321289062	-1414.379516601562	47.05483245849609	-211.8502655029297	-1356.05908203125	44.91093444824219	-170.5203552246094	-1313.122924804688	40.38229370117188	-283.5304870605469	-1139.164672851562	42.70793533325195	-201.5354461669922	nan	nan	nan	
4	0.03	-1170.598022460938	1039.528198242188	-219.2056274414062	-1175.752807617188	1045.572265625	-98.96059417724609	-1163.545166015625	1124.452514648438	-143.7175140380859	-1398.183715820312	1321.904296875	-143.4779205322266	-1146.510498046875	1250.976440429688	-150.9426879882812	-1197.942993164062	1515.297119140625	-149.845458984375	-1366.434936523438	1438.081298828125	-145.6715087890625	-1126.438842773438	1373.888427734375	-222.3177642822266	-1179.552001953125	1476.164428710938	-37.31442260742188	-1268.97021484375	1481.88916015625	20.48846435546875	-1247.226684570312	1361.173706054688	100.1357879638672	-1277.636840820312	1150.047119140625	123.0635986328125	-1203.437255859375	1130.899536132812	79.44853210449219	-1373.99853515625	919.6361083984375	58.22414398193359	-1353.271850585938	901.0747680664062	138.2825012207031	-1305.880249023438	1043.673583984375	134.2144622802734	-1387.280151367188	723.82470703125	65.50102233886719	-1372.416015625	813.2084350585938	132.5492858886719	-1412.583618164062	819.1406860351562	77.48675537109375	-1260.885986328125	1472.787353515625	-317.149169921875	-1244.436767578125	1405.699096679688	-382.7287902832031	-1240.151000976562	1123.4560546875	-415.8796997070312	-1205.386352539062	1114.703491210938	-327.1770935058594	-1387.435180664062	916.9574584960938	-376.7976989746094	-1333.793090820312	900.0100708007812	-439.2572937011719	-1269.240112304688	1056.662719726562	-428.3975219726562	-1409.277099609375	723.8479614257812	-370.3804016113281	-1429.942626953125	796.98681640625	-391.9318237304688	-1376.057983398438	794.4417114257812	-440.4604187011719	-1224.578979492188	1633.746215820312	-225.5604095458984	-1379.463256835938	1764.741821289062	-120.0073165893555	-1396.257202148438	1748.451293945312	-217.3424835205078	-1241.0478515625	1677.855712890625	-92.10572814941406	-1282.938110351562	991.8609619140625	37.60218048095703	-1269.06982421875	1004.249450683594	-327.2494812011719	-1362.356323242188	1054.764526367188	-293.8320007324219	-1380.371826171875	1039.229736328125	-13.37683963775635	-1325.488525390625	509.2815551757812	-16.15754890441895	-1324.489379882812	652.9937133789062	17.65054893493652	-1219.383056640625	41.66128921508789	-35.88602447509766	-1266.671752929688	286.1276245117188	-15.24671363830566	-1435.055786132812	45.72578811645508	-88.91150665283203	-1367.770263671875	41.0005989074707	-132.5732727050781	-1347.415649414062	39.45694732666016	-16.48121643066406	-1158.15625	49.9761848449707	-88.83294677734375	-1324.190795898438	515.4937744140625	-282.7080383300781	-1202.660888671875	40.77666854858398	-259.6387939453125	-1323.191040039062	394.7102661132812	-263.0771789550781	-1414.368041992188	47.06646347045898	-211.8516540527344	-1356.059936523438	44.91355514526367	-170.5207672119141	-1313.119018554688	40.38421630859375	-283.5296936035156	-1139.230590820312	42.58109664916992	-201.5596160888672	nan	nan	nan	
